<svg xmlns="http://www.w3.org/2000/svg" viewBox="0 0 100 100">
  <path d="M50 12c5 6 7 10 7 14a7 7 0 0 1-14 0c0-4 2-8 7-14z" fill="#E07A1F"/>
  <ellipse cx="50" cy="35" rx="4.5" ry="3" fill="#9B1B30"/>
  <path d="M42 40h16l2 7H40z" fill="#9B1B30"/>
  <path d="M37 48h26l2.5 8h-31z" fill="#9B1B30"/>
  <path d="M32 57h36l3 9H29z" fill="#9B1B30"/>
  <path d="M26 67h48l3 10H23z" fill="#9B1B30"/>
  <path d="M20 78h60v10H20z" fill="#9B1B30"/>
  <path d="M44 88v-9a6 6 0 0 1 12 0v9z" fill="#E07A1F"/></svg>